<svg xmlns="http://www.w3.org/2000/svg" width="605.451" height="447.667" viewBox="0 0 605.451 447.667">
  <g id="Group_1" data-name="Group 1" transform="translate(0 0)">
    <path id="Path_1" data-name="Path 1" d="M1022.4,710.718c-1.817-14.61-10.872-29.006-24.806-33.76a67.835,67.835,0,0,1,0,46.573c-2.141,5.792-5.126,12.01-3.112,17.847,1.253,3.632,4.319,6.411,7.745,8.148a45.032,45.032,0,0,0,10.985,3.377l.739.611C1019.915,740.053,1024.219,725.329,1022.4,710.718Z" transform="translate(-438.133 -307.344)" fill="#f0f0f0"/>
    <path id="Path_2" data-name="Path 2" d="M999.439,677.062a57.98,57.98,0,0,1,14.414,32.631,24.97,24.97,0,0,1-.284,7.818,14.32,14.32,0,0,1-3.562,6.642c-1.605,1.764-3.452,3.382-4.6,5.505a8.768,8.768,0,0,0-.428,7.158,22.784,22.784,0,0,0,5.048,7.53c2.26,2.5,4.646,5.058,5.607,8.371.116.4.732.2.616-.2-1.671-5.763-7.266-9.037-9.934-14.228a8.88,8.88,0,0,1-.6-7.791c1.021-2.236,2.923-3.906,4.564-5.678a15.28,15.28,0,0,0,3.724-6.365,23.079,23.079,0,0,0,.584-7.778,56.248,56.248,0,0,0-4.108-17.094,59,59,0,0,0-10.61-17C999.591,676.264,999.164,676.753,999.439,677.062Z" transform="translate(-440.114 -307.171)" fill="#fff"/>
    <path id="Path_3" data-name="Path 3" d="M1021.424,716.837a8.7,8.7,0,0,0,6.622-9.113.325.325,0,0,0-.648.032,8.055,8.055,0,0,1-6.177,8.464c-.406.1-.2.712.2.616Z" transform="translate(-447.858 -318.242)" fill="#fff"/>
    <path id="Path_4" data-name="Path 4" d="M1012.869,743.979a16.767,16.767,0,0,1-7.487-9.656c-.118-.4-.734-.2-.616.2a17.44,17.44,0,0,0,7.811,10.032C1012.937,744.772,1013.227,744.191,1012.869,743.979Z" transform="translate(-442.046 -327.784)" fill="#fff"/>
    <path id="Path_5" data-name="Path 5" d="M1008.929,694.2a4.924,4.924,0,0,1-4.666-.237c-.357-.218-.646.363-.292.58a5.518,5.518,0,0,0,5.162.273.335.335,0,0,0,.206-.41A.326.326,0,0,0,1008.929,694.2Z" transform="translate(-441.709 -313.409)" fill="#fff"/>
    <path id="Path_6" data-name="Path 6" d="M933.581,716.721c.219.142.438.285.657.433a64.85,64.85,0,0,1,8.291,6.473c.2.181.405.367.6.553A68.364,68.364,0,0,1,957.979,744.5a66.384,66.384,0,0,1,3.637,9.409c1.342,4.452,2.442,9.387,5.1,13.029a11.411,11.411,0,0,0,.887,1.1h24c.055-.027.109-.049.164-.077l.958.044c-.039-.17-.082-.345-.121-.515-.022-.1-.049-.2-.071-.3-.016-.066-.033-.131-.044-.192-.005-.022-.011-.044-.016-.06-.011-.06-.028-.115-.039-.17q-.361-1.471-.745-2.941c0-.005,0-.005-.005-.011a97.615,97.615,0,0,0-8.215-21.567c-.11-.2-.219-.411-.34-.613a63.349,63.349,0,0,0-5.69-8.631,56,56,0,0,0-3.729-4.266,46.573,46.573,0,0,0-11.654-8.73c-8.609-4.546-18.576-6.287-27.777-3.511C934.047,716.573,933.816,716.644,933.581,716.721Z" transform="translate(-416.59 -321.011)" fill="#f0f0f0"/>
    <path id="Path_7" data-name="Path 7" d="M933.508,717.7a57.98,57.98,0,0,1,31.155,17.376,24.97,24.97,0,0,1,4.48,6.413,14.321,14.321,0,0,1,1.155,7.448c-.22,2.375-.72,4.778-.359,7.165a8.769,8.769,0,0,0,3.968,5.973,22.783,22.783,0,0,0,8.564,2.973c3.309.635,6.755,1.241,9.517,3.308.335.25.7-.283.369-.533-4.8-3.6-11.243-2.841-16.5-5.38a8.88,8.88,0,0,1-5.17-5.859c-.531-2.4-.018-4.879.225-7.281a15.282,15.282,0,0,0-.858-7.324,23.082,23.082,0,0,0-4.217-6.562,56.252,56.252,0,0,0-13.572-11.175,59.008,59.008,0,0,0-18.709-7.188c-.409-.081-.456.567-.05.647Z" transform="translate(-416.463 -321.681)" fill="#fff"/>
    <path id="Path_8" data-name="Path 8" d="M977.836,734.061a8.7,8.7,0,0,0-.2-11.262c-.277-.312-.775.1-.5.416a8.055,8.055,0,0,1,.164,10.477C977.037,734.013,977.572,734.381,977.836,734.061Z" transform="translate(-432.141 -323.7)" fill="#fff"/>
    <path id="Path_9" data-name="Path 9" d="M984.516,763.02a16.766,16.766,0,0,1-11.792-3.2c-.335-.249-.7.284-.37.533a17.44,17.44,0,0,0,12.277,3.307c.416-.046.3-.684-.116-.639Z" transform="translate(-430.411 -336.958)" fill="#fff"/>
    <path id="Path_10" data-name="Path 10" d="M951.4,724.131a4.924,4.924,0,0,1-3.868,2.62c-.416.041-.3.679.116.639a5.518,5.518,0,0,0,4.286-2.889.335.335,0,0,0-.082-.451A.326.326,0,0,0,951.4,724.131Z" transform="translate(-421.487 -324.167)" fill="#fff"/>
    <path id="Path_11" data-name="Path 11" d="M247.656,294.6c-21.561,11.372-38.549,33.826-37.75,58.188a112.309,112.309,0,0,1,72.122-27.276c10.223-.077,21.6.9,29.46-5.636,4.89-4.068,7.4-10.443,8.081-16.767s-.262-12.7-1.205-18.99l.514-1.5C294.54,281.267,269.217,283.224,247.656,294.6Z" transform="translate(-157.738 -166.163)" fill="#f0f0f0"/>
    <path id="Path_12" data-name="Path 12" d="M210.12,352.977a95.994,95.994,0,0,1,42.088-41.435,41.338,41.338,0,0,1,12.273-4.14,23.709,23.709,0,0,1,12.372,1.625c3.672,1.453,7.259,3.364,11.22,3.9a14.517,14.517,0,0,0,11.336-3.53c3.91-3.274,6.411-7.758,8.7-12.228,2.546-4.963,5.111-10.158,9.679-13.586.553-.415-.123-1.25-.676-.835-7.946,5.964-9.739,16.546-16.214,23.718-3.022,3.347-7.07,5.8-11.714,5.494-4.06-.271-7.761-2.238-11.466-3.742a25.3,25.3,0,0,0-12.038-2.039,38.214,38.214,0,0,0-12.387,3.652,93.132,93.132,0,0,0-24.065,16.375A97.7,97.7,0,0,0,209.115,352.6c-.319.612.689.987,1.005.38Z" transform="translate(-157.443 -166.303)" fill="#fff"/>
    <path id="Path_13" data-name="Path 13" d="M256.743,328.147a14.4,14.4,0,0,0-17.99-4.916c-.625.295-.2,1.28.43.985a13.336,13.336,0,0,1,16.725,4.607C256.3,329.4,257.128,328.717,256.743,328.147Z" transform="translate(-167.956 -180.338)" fill="#fff"/>
    <path id="Path_14" data-name="Path 14" d="M305.86,321.94a27.759,27.759,0,0,1-10.567,17.251c-.552.417.125,1.252.676.835a28.873,28.873,0,0,0,10.96-17.973c.12-.682-.949-.791-1.068-.112Z" transform="translate(-188.215 -180.198)" fill="#fff"/>
    <path id="Path_15" data-name="Path 15" d="M229.726,362.686a8.152,8.152,0,0,1,2.367,7.365c-.128.68.941.788,1.068.112a9.136,9.136,0,0,0-2.6-8.153.555.555,0,0,0-.755-.079.54.54,0,0,0-.08.755Z" transform="translate(-164.794 -194.625)" fill="#fff"/>
    <path id="Path_16" data-name="Path 16" d="M304.8,402.932c.092-.423.184-.845.285-1.271a107.358,107.358,0,0,1,5.167-16.631c.161-.42.331-.843.5-1.257a113.182,113.182,0,0,1,22.775-34.9,109.905,109.905,0,0,1,12.44-11.143c6.109-4.686,13.105-9.281,17.189-15.527a18.863,18.863,0,0,0,1.176-2.016L350.275,283.02c-.074-.068-.14-.141-.215-.209l-.494-1.51c-.24.159-.486.329-.727.488-.14.092-.276.192-.416.283-.092.064-.184.128-.271.18-.031.021-.061.043-.084.061-.087.052-.162.11-.24.159q-2.065,1.421-4.118,2.876c-.008,0-.008,0-.014.015a161.615,161.615,0,0,0-28.585,25.354c-.25.288-.508.58-.751.885a104.885,104.885,0,0,0-10.032,13.867,92.714,92.714,0,0,0-4.422,8.274,77.1,77.1,0,0,0-6.692,23.16c-2,15.995,1.146,32.449,10.835,45.071C304.3,402.3,304.543,402.612,304.8,402.932Z" transform="translate(-187.341 -165.826)" fill="#f0f0f0"/>
    <path id="Path_17" data-name="Path 17" d="M310.937,402.942a95.994,95.994,0,0,1,8.658-58.423,41.339,41.339,0,0,1,7.307-10.694,23.71,23.71,0,0,1,10.856-6.151c3.806-1.051,7.821-1.685,11.306-3.642a14.517,14.517,0,0,0,6.926-9.643c1.151-4.968.448-10.054-.413-15-.955-5.5-2.035-11.188-.452-16.675.192-.665-.851-.924-1.042-.26-2.754,9.546,2.186,19.074,1.334,28.7-.4,4.492-2.151,8.891-6.045,11.439-3.4,2.228-7.545,2.886-11.408,3.916a25.3,25.3,0,0,0-10.839,5.619,38.216,38.216,0,0,0-7.691,10.374,93.131,93.131,0,0,0-9.355,27.563,97.7,97.7,0,0,0-.172,33.183c.114.68,1.144.374,1.031-.3Z" transform="translate(-193.038 -166.099)" fill="#fff"/>
    <path id="Path_18" data-name="Path 18" d="M311.027,387.677a14.4,14.4,0,0,0-17.323,6.906c-.322.612.614,1.14.936.528a13.336,13.336,0,0,1,16.128-6.391c.654.224.91-.82.26-1.042Z" transform="translate(-187.696 -203.604)" fill="#fff"/>
    <path id="Path_19" data-name="Path 19" d="M350.861,353.048a27.759,27.759,0,0,1,1.949,20.136c-.189.665.853.924,1.042.26a28.874,28.874,0,0,0-2.07-20.949c-.315-.617-1.234-.06-.921.553Z" transform="translate(-208.141 -191.195)" fill="#fff"/>
    <path id="Path_20" data-name="Path 20" d="M309.813,435.044a8.152,8.152,0,0,1,6.324,4.456c.307.62,1.226.063.921-.554A9.135,9.135,0,0,0,310.073,434a.555.555,0,0,0-.651.391.54.54,0,0,0,.391.651Z" transform="translate(-193.336 -220.439)" fill="#fff"/>
    <path id="Path_21" data-name="Path 21" d="M535.629,191.693h-2.085V134.58a33.055,33.055,0,0,0-33.055-33.055h-121a33.056,33.056,0,0,0-33.056,33.056V447.907a33.055,33.055,0,0,0,33.055,33.056h121a33.055,33.055,0,0,0,33.056-33.055V232.347h2.085Z" transform="translate(-206.58 -101.524)" fill="#3f3d56"/>
    <path id="Path_22" data-name="Path 22" d="M506.9,114.913H491.107a11.728,11.728,0,0,1-10.859,16.157H410.927a11.728,11.728,0,0,1-10.858-16.157H385.317A24.685,24.685,0,0,0,360.631,139.6V452.465a24.685,24.685,0,0,0,24.685,24.685H506.9a24.685,24.685,0,0,0,24.685-24.685h0V139.6A24.685,24.685,0,0,0,506.9,114.913Z" transform="translate(-211.659 -106.313)" fill="#fff"/>
    <path id="Path_23" data-name="Path 23" d="M453.2,319.567a72.843,72.843,0,1,1,72.842-72.843A72.843,72.843,0,0,1,453.2,319.567Zm0-144.4a71.558,71.558,0,1,0,71.558,71.558A71.558,71.558,0,0,0,453.2,175.167Z" transform="translate(-218.714 -127.405)" fill="#3f3d56"/>
    <path id="Path_24" data-name="Path 24" d="M429.985,291.363c-2.514-7.451-11.487-12.011-18.987-9.648-6.486,2.043-10.9,8.959-10.545,15.672-2.169-8.2-10.514-14.612-19.073-14.011-9.619.675-17.74,10.083-17,19.7a11.182,11.182,0,0,0-21.755-1.85l0-.178c-1.53-.86-3.6.647-3.695,2.4a4.441,4.441,0,0,0,2.9,4.007,13.031,13.031,0,0,0,5.182.7l65.726-.085c5.089-.007,10.7-.206,14.44-3.657C430.634,301.218,431.489,295.82,429.985,291.363Z" transform="translate(-203.895 -165.75)" fill="#e4e4e4"/>
    <path id="Path_25" data-name="Path 25" d="M535.827,347.081a7.908,7.908,0,0,0-15.381,3.138,9.54,9.54,0,0,0-18.789,2.961,5.824,5.824,0,0,0-11.33-.964l0-.093a1.422,1.422,0,0,0-1.924,1.25,2.313,2.313,0,0,0,1.51,2.087,6.785,6.785,0,0,0,2.7.363l34.231-.044c2.651,0,5.572-.107,7.521-1.9A6.54,6.54,0,0,0,535.827,347.081Z" transform="translate(-257.36 -187.45)" fill="#e4e4e4"/>
    <circle id="Ellipse_1" data-name="Ellipse 1" cx="25.08" cy="25.08" r="25.08" transform="translate(223.846 52.44)" fill="#ff6582"/>
    <path id="Path_26" data-name="Path 26" d="M573.153,229.837c-2.514-7.451-11.487-12.011-18.987-9.648-6.486,2.043-10.9,8.959-10.545,15.672-2.169-8.2-10.514-14.612-19.073-14.011-9.619.675-17.74,10.083-17,19.7a11.182,11.182,0,0,0-21.755-1.85l0-.178c-1.53-.86-3.6.647-3.695,2.4a4.441,4.441,0,0,0,2.9,4.007,13.031,13.031,0,0,0,5.182.7l65.726-.085c5.089-.007,10.7-.206,14.44-3.657C573.8,239.692,574.657,234.294,573.153,229.837Z" transform="translate(-255.103 -143.744)" fill="#e4e4e4"/>
    <path id="Path_27" data-name="Path 27" d="M543.577,294.664l4.831-3.864c-3.753-.414-5.295,1.633-5.926,3.253-2.932-1.217-6.124.378-6.124.378l9.666,3.509A7.314,7.314,0,0,0,543.577,294.664Z" transform="translate(-274.512 -169.205)" fill="#3f3d56"/>
    <path id="Path_28" data-name="Path 28" d="M446.554,353.824l4.831-3.864c-3.753-.414-5.295,1.633-5.926,3.253-2.932-1.217-6.124.378-6.124.378L449,357.1A7.314,7.314,0,0,0,446.554,353.824Z" transform="translate(-239.809 -190.365)" fill="#3f3d56"/>
    <path id="Path_29" data-name="Path 29" d="M429.989,252.069l4.831-3.864c-3.753-.414-5.295,1.633-5.926,3.253-2.932-1.217-6.124.378-6.124.378l9.666,3.509a7.314,7.314,0,0,0-2.447-3.276Z" transform="translate(-233.884 -153.969)" fill="#3f3d56"/>
    <ellipse id="Ellipse_2" data-name="Ellipse 2" cx="42.56" cy="4.56" rx="42.56" ry="4.56" transform="translate(188.126 313.88)" fill="#f0f0f0"/>
    <path id="Path_30" data-name="Path 30" d="M150.4,482.977H350.036a21.7,21.7,0,0,1,7.233,42.159v14.983l-13.743-13.743H150.4a21.7,21.7,0,1,1,0-43.4Z" transform="translate(-128.703 -237.961)" fill="#6c63ff"/>
    <path id="Path_31" data-name="Path 31" d="M176.319,507.266H352.084a1.447,1.447,0,0,0,0-2.893H176.319a1.447,1.447,0,1,0,0,2.893Z" transform="translate(-145.217 -245.614)" fill="#fff"/>
    <path id="Path_32" data-name="Path 32" d="M176.319,524.158H352.084a1.447,1.447,0,1,0,0-2.893H176.319a1.447,1.447,0,1,0,0,2.893Z" transform="translate(-145.217 -251.656)" fill="#fff"/>
    <path id="Path_33" data-name="Path 33" d="M846.052,554.554a7.553,7.553,0,0,0,2.076-11.394l8.782-68.232-16.412.689-3.472,66.854a7.594,7.594,0,0,0,9.025,12.084Z" transform="translate(-381.209 -235.082)" fill="#ffb6b6"/>
    <path id="Path_34" data-name="Path 34" d="M832.055,373.388l2.109,34.887-14.238,37.6-6.8-10.058,6.484-36.582-1.8-23.4Z" transform="translate(-290.836 -133.553)" fill="#ffb6b6"/>
    <path id="Path_35" data-name="Path 35" d="M798.336,540.34l1.747,89.681-7.665,1.187-16.57-91.789Z" transform="translate(-277.504 -192.938)" fill="#ffb6b6"/>
    <path id="Path_36" data-name="Path 36" d="M733.457,545.176l12,88.892h7.757l2.327-93.244Z" transform="translate(-262.341 -193.441)" fill="#ffb6b6"/>
    <circle id="Ellipse_3" data-name="Ellipse 3" cx="15.953" cy="15.953" r="15.953" transform="translate(477.74 162.325)" fill="#ffb6b6"/>
    <path id="Path_37" data-name="Path 37" d="M903.295,372.571c.543,1.195,1.4.448,2.39-.368a11.98,11.98,0,0,0,3.555-6.163,23.12,23.12,0,0,0,.283-11.557,18.356,18.356,0,0,0-6.009-9.789,12.291,12.291,0,0,0-2.224-1.484,14.694,14.694,0,0,0-8.8-.976,30.708,30.708,0,0,0-11.02,3.954,11.858,11.858,0,0,0-3.925,3.34,5.268,5.268,0,0,0-.711,4.928.839.839,0,0,0,.253.366.96.96,0,0,0,.7.077,26.114,26.114,0,0,1,7.26.023,2.16,2.16,0,0,1,1.712.865,11.83,11.83,0,0,1,.318,1.437c.545,1.458,2.954,1.1,3.86,2.366.57.8.318,1.925.716,2.819.638,1.433,2.581,1.661,4.131,1.415s3.224-.735,4.615-.009c1.34.7,1.924,2.287,2.261,3.761C902.986,369.007,902.719,371.3,903.295,372.571Z" transform="translate(-396.18 -187.533)" fill="#2f2e41"/>
    <path id="Path_38" data-name="Path 38" d="M780.156,458.642l6.694,15.652-6.694,21.06v21.8l-25.636.154-.567-26.807L750.5,517.307H724.4l-4.832-53.73,6.931-12.715Z" transform="translate(-257.374 -161.263)" fill="#2f2e41"/>
    <path id="Path_39" data-name="Path 39" d="M874.645,412.042l-1.886,3.495s-16.268,3.169-24.487,12.123L859.3,450.185l-10.216,65.238,60.238-4.016,2.137-50.228,9.064-35.131s-15.714-10.778-22.494-9.645l-2.373-4.362Z" transform="translate(-386.077 -212.589)" fill="#6c63ff"/>
    <path id="Path_40" data-name="Path 40" d="M861.414,438.7l-15.484-2.346s-4.239,24.862-4.2,30.538l18.688,2.982Z" transform="translate(-383.736 -221.286)" fill="#6c63ff"/>
    <path id="Path_41" data-name="Path 41" d="M946.866,435.434l7.4-1.586s2.854,9.058,7.564,30.389L942.6,470.948Z" transform="translate(-419.815 -220.389)" fill="#6c63ff"/>
    <path id="Path_42" data-name="Path 42" d="M879.745,790.363H851.887v-.352a10.844,10.844,0,0,1,10.843-10.843h17.016Z" transform="translate(-387.37 -343.902)" fill="#2f2e41"/>
    <path id="Path_43" data-name="Path 43" d="M932.1,783.8l-27.53,4.263-.054-.348a10.844,10.844,0,0,1,9.056-12.375h0l16.815-2.6Z" transform="translate(-406.147 -341.602)" fill="#2f2e41"/>
    <path id="Path_44" data-name="Path 44" d="M933.667,797.761H688.942a.642.642,0,0,1,0-1.285H933.667a.642.642,0,0,1,0,1.285Z" transform="translate(-328.858 -350.093)" fill="#cacaca"/>
  </g>
</svg>
